<?xml version="1.0" standalone="no"?>
<!DOCTYPE svg PUBLIC "-//W3C//DTD SVG 20010904//EN"
 "http://www.w3.org/TR/2001/REC-SVG-20010904/DTD/svg10.dtd">
<svg version="1.0" xmlns="http://www.w3.org/2000/svg"
 width="16.000000pt" height="16.000000pt" viewBox="0 0 16.000000 16.000000"
 preserveAspectRatio="xMidYMid meet">
<metadata>
Created by potrace 1.11, written by Peter Selinger 2001-2013
</metadata>
<g transform="translate(0.000000,16.000000) scale(0.002500,-0.002500)"
fill="#000000" stroke="none">
<path d="M3048 5815 c-2 -2 -35 -6 -73 -9 -39 -3 -83 -8 -100 -10 -46 -7 -97
-16 -125 -21 -14 -3 -39 -7 -57 -9 -18 -3 -36 -7 -41 -10 -5 -3 -23 -8 -41
-11 -45 -8 -139 -33 -151 -40 -5 -3 -18 -8 -27 -10 -29 -5 -143 -46 -172 -61
-14 -8 -31 -14 -37 -14 -5 0 -32 -11 -60 -24 -27 -13 -67 -31 -89 -42 -22 -10
-42 -20 -45 -23 -3 -4 -38 -23 -78 -44 -61 -31 -187 -109 -227 -139 -214 -164
-214 -164 -325 -272 -137 -133 -260 -282 -364 -441 -49 -75 -126 -207 -126
-216 0 -2 110 -4 245 -4 207 0 247 3 255 15 32 51 112 155 177 229 89 100 175
178 340 312 78 62 438 262 495 273 7 2 20 6 28 9 65 25 238 78 270 82 14 2 26
4 28 6 3 2 11 4 67 14 28 4 57 10 65 11 8 2 40 6 70 9 30 3 73 9 95 11 54 8
285 7 360 -1 83 -8 136 -15 165 -21 14 -2 39 -6 55 -9 98 -15 269 -65 400
-117 87 -34 281 -128 310 -150 22 -17 117 -78 121 -78 2 0 12 -6 21 -14 10 -8
63 -50 118 -94 110 -88 238 -216 330 -332 33 -41 63 -77 66 -80 3 -3 14 -20
24 -37 11 -18 22 -34 25 -34 14 -4 490 -4 490 0 0 2 -19 37 -42 78 -24 41 -47
83 -53 94 -5 10 -13 19 -17 19 -5 0 -8 6 -8 13 0 8 -9 22 -20 32 -11 10 -20
22 -20 27 0 13 -78 114 -174 227 -66 78 -125 138 -240 247 -6 6 -49 41 -96 79
-47 37 -86 72 -88 77 -2 4 -7 8 -11 8 -4 0 -58 34 -121 76 -125 83 -384 214
-520 262 -102 37 -254 83 -293 88 -16 2 -32 6 -37 9 -4 3 -25 7 -46 10 -22 4
-48 9 -59 12 -11 3 -31 7 -45 9 -27 2 -114 13 -170 21 -42 6 -417 13 -422 8z"/>
<path d="M3210 5070 c0 -10 -16 -49 -50 -125 -8 -18 -380 -921 -466 -1132 -19
-46 -49 -120 -68 -165 -19 -46 -50 -122 -70 -170 -20 -49 -51 -125 -70 -170
-19 -46 -55 -135 -81 -197 -25 -63 -53 -127 -61 -143 -8 -15 -14 -29 -13 -30
1 -2 -8 -25 -20 -52 -12 -28 -24 -60 -27 -73 -11 -43 -29 -45 -43 -5 -8 20
-22 55 -32 77 -32 73 -189 445 -189 450 0 2 -12 30 -26 62 -35 76 -35 77 -159
373 -59 140 -109 257 -111 259 -3 3 -1667 5 -1710 2 -9 -1 -12 -61 -11 -216 0
-118 3 -215 6 -215 3 -1 302 -1 664 -2 l658 0 10 -25 c5 -13 21 -50 35 -81 15
-31 38 -82 52 -112 14 -30 26 -57 27 -60 0 -3 14 -32 29 -65 24 -52 78 -169
223 -485 19 -41 43 -93 53 -115 10 -22 31 -67 46 -100 15 -33 41 -91 59 -130
96 -208 128 -279 130 -285 1 -3 22 -50 48 -104 26 -54 47 -100 47 -102 0 -1
22 -49 48 -106 26 -57 66 -142 87 -190 22 -48 43 -84 46 -80 3 4 14 27 23 52
10 25 24 59 31 75 14 32 97 233 310 750 75 182 140 339 145 350 31 70 50 119
50 131 0 8 5 14 10 14 6 0 9 3 8 8 -2 9 -13 -21 149 372 73 179 138 333 144
344 6 10 12 26 14 35 2 9 17 47 33 85 l30 69 21 -48 c11 -26 21 -50 21 -52 0
-3 7 -19 14 -36 8 -18 42 -99 76 -182 71 -174 72 -177 96 -230 10 -22 19 -44
20 -50 1 -5 16 -44 34 -85 46 -110 51 -123 61 -143 5 -9 20 -45 33 -80 13 -34
32 -82 44 -107 11 -25 45 -106 75 -180 30 -74 109 -268 177 -430 67 -162 146
-353 175 -425 81 -197 107 -252 112 -235 5 15 27 62 101 220 20 41 36 77 37
80 1 3 18 41 39 85 21 44 49 105 63 135 14 30 46 98 70 150 43 91 68 143 132
284 17 35 48 102 69 148 22 45 52 110 67 143 15 33 52 111 81 173 30 62 54
114 54 116 0 2 30 67 66 143 36 76 83 176 105 223 22 47 45 96 52 110 l13 25
624 2 c344 1 630 2 636 2 17 1 17 431 0 432 -6 0 -379 2 -830 2 l-818 2 -15
-28 c-14 -27 -99 -223 -200 -457 -128 -299 -207 -480 -229 -528 -13 -29 -24
-55 -24 -57 0 -3 -14 -35 -31 -72 -16 -38 -36 -81 -43 -98 l-14 -30 -17 40
c-19 42 -19 43 -61 145 -25 62 -37 91 -68 163 -8 17 -24 57 -36 87 -12 30 -28
70 -36 88 -8 17 -20 47 -28 65 -8 17 -40 95 -71 172 -31 77 -62 153 -69 170
-24 55 -113 268 -181 435 -26 63 -51 122 -55 131 -4 8 -20 47 -35 85 -15 38
-36 87 -45 109 -10 22 -39 92 -64 155 -26 63 -51 124 -56 135 -27 61 -70 164
-70 169 0 3 -13 35 -30 71 -16 36 -30 70 -30 75 0 5 -4 12 -10 15 -5 3 -10 1
-10 -5z"/>
<path d="M614 3038 c3 -62 8 -124 10 -138 3 -14 7 -47 11 -75 20 -171 95 -444
172 -630 58 -140 198 -397 245 -451 10 -11 18 -24 18 -27 0 -4 23 -38 52 -75
291 -380 636 -656 1038 -832 52 -23 104 -45 115 -50 30 -14 226 -78 255 -84
14 -3 52 -12 85 -21 69 -17 112 -26 140 -30 11 -1 36 -5 55 -9 93 -19 241 -29
405 -30 121 0 300 8 300 14 0 1 16 3 35 5 262 31 559 120 803 240 145 71 297
160 372 217 6 4 44 34 85 65 104 80 130 103 250 223 118 118 162 167 205 225
17 22 35 45 41 51 9 10 44 62 163 244 33 50 140 268 176 360 79 198 138 422
161 615 4 28 8 53 10 56 1 3 6 60 10 127 l7 122 -214 -2 -213 -3 -2 -50 c-4
-111 -18 -213 -49 -370 -16 -78 -65 -242 -90 -300 -7 -16 -16 -40 -19 -52 -4
-12 -25 -58 -46 -103 -22 -44 -40 -83 -41 -88 0 -4 -6 -14 -12 -22 -7 -8 -18
-26 -25 -39 -8 -13 -22 -38 -31 -55 -16 -27 -72 -114 -93 -141 -117 -158 -273
-322 -403 -427 -89 -72 -275 -198 -291 -198 -7 0 -14 -3 -16 -7 -9 -22 -307
-155 -398 -178 -3 -1 -12 -5 -20 -8 -18 -8 -176 -47 -210 -53 -14 -2 -36 -7
-48 -10 -24 -5 -44 -8 -167 -24 -115 -14 -486 -4 -575 16 -14 3 -36 8 -50 10
-14 2 -46 9 -71 15 -26 6 -54 11 -63 13 -8 1 -19 5 -22 9 -4 4 -17 7 -28 7
-12 0 -52 12 -91 26 -38 14 -77 27 -85 29 -29 6 -205 87 -280 127 -100 55
-238 147 -330 221 -102 83 -263 245 -339 342 -34 44 -68 87 -74 95 -26 33 -67
100 -67 109 0 5 -4 11 -8 13 -9 4 -60 89 -60 102 0 5 -4 12 -9 15 -12 9 -70
131 -114 242 -34 86 -66 190 -89 289 -5 19 -11 45 -13 57 -3 11 -9 43 -13 70
-3 26 -8 57 -10 68 -8 38 -18 150 -18 202 l-1 53 -214 0 -214 0 7 -112z"/>
</g>
</svg>
